<svg width="452" height="482" viewBox="0 0 452 482" fill="none" xmlns="http://www.w3.org/2000/svg">
<path id="logo-for-light" d="M451.221 101.04L447.689 20.542C447.649 19.6109 447.372 18.7055 446.884 17.9113C446.396 17.1172 445.714 16.4607 444.901 16.0039C444.089 15.5471 443.174 15.3051 442.242 15.3008C441.31 15.2965 440.392 15.53 439.575 15.9793L326.153 78.3551C323.62 75.5014 320.306 73.4526 316.621 72.4621C312.936 71.4717 309.042 71.5829 305.419 72.7822C301.797 73.9814 298.606 76.216 296.24 79.2098C293.874 82.2035 292.437 85.8249 292.107 89.6264L256.257 94.9173H209.212L154.828 86.894L41.6889 24.6858C42.0495 23.1939 42.2313 21.6644 42.2302 20.1296C42.2276 16.5137 41.2218 12.9695 39.3246 9.8914C37.4274 6.81327 34.7133 4.32194 31.4843 2.69466C28.2553 1.06738 24.6382 0.367987 21.0353 0.67431C17.4325 0.980633 13.9853 2.28066 11.0774 4.42971C8.16953 6.57876 5.91499 9.49254 4.56469 12.8468C3.2144 16.201 2.82132 19.8642 3.42921 23.4285C4.03709 26.9929 5.62208 30.3187 8.0078 33.0358C10.3935 35.7529 13.4864 37.7547 16.9422 38.8185L15.0089 82.7824C10.4542 84.0501 6.51381 86.9267 3.91872 90.8787C1.32364 94.8306 0.249963 99.5896 0.896867 104.273C1.54377 108.956 3.86733 113.246 7.43656 116.347C11.0058 119.447 15.5784 121.148 20.3062 121.133C21.1274 121.135 21.9477 121.081 22.7616 120.972L63.6838 209.326L40.632 312.591C40.386 313.67 40.4751 314.799 40.8873 315.826C41.2996 316.853 42.0154 317.73 42.9391 318.34L140.514 383.358L188.519 478.4C188.975 479.306 189.674 480.066 190.538 480.597C191.402 481.127 192.397 481.407 193.41 481.403H272.033C273.047 481.407 274.043 481.127 274.907 480.595C275.771 480.063 276.47 479.301 276.924 478.394L324.922 383.358L422.498 318.333C423.415 317.716 424.125 316.837 424.536 315.811C424.948 314.784 425.041 313.658 424.805 312.578L405.536 226.223C408.455 224.756 410.959 222.579 412.819 219.894C414.679 217.208 415.835 214.098 416.182 210.85C416.529 207.601 416.055 204.318 414.805 201.3C413.554 198.282 411.566 195.626 409.022 193.575L450.718 103.579C451.086 102.785 451.259 101.914 451.221 101.04V101.04ZM311.563 81.4613C313.516 81.4613 315.424 82.0404 317.048 83.1252C318.672 84.2101 319.937 85.752 320.684 87.556C321.432 89.3601 321.627 91.3452 321.246 93.2603C320.865 95.1755 319.925 96.9346 318.544 98.3154C317.163 99.6961 315.404 100.636 313.489 101.017C311.574 101.398 309.589 101.203 307.785 100.456C305.981 99.7083 304.439 98.4429 303.354 96.8193C302.269 95.1957 301.69 93.2869 301.69 91.3342C301.692 88.7163 302.733 86.2061 304.584 84.3549C306.435 82.5038 308.945 81.463 311.563 81.4613V81.4613ZM20.3062 111.467C18.353 111.468 16.4433 110.89 14.8187 109.805C13.1941 108.721 11.9277 107.179 11.1796 105.375C10.4316 103.571 10.2355 101.585 10.6163 99.6692C10.997 97.7535 11.9374 95.9937 13.3186 94.6126C14.6997 93.2315 16.4595 92.291 18.3752 91.9103C20.291 91.5295 22.2766 91.7256 24.0809 92.4736C25.8852 93.2217 27.4271 94.4881 28.5115 96.1127C29.5958 97.7373 30.1739 99.647 30.1727 101.6C30.1693 104.216 29.1287 106.723 27.2791 108.573C25.4295 110.423 22.9219 111.463 20.3062 111.467V111.467ZM31.7644 117.408C34.8022 115.209 37.1421 112.181 38.5042 108.687C39.8664 105.193 40.1931 101.38 39.4453 97.705C38.6975 94.03 36.9069 90.6481 34.2876 87.964C31.6683 85.2799 28.3312 83.4072 24.6756 82.5698L26.5896 39.2889C27.7171 39.0611 28.8215 38.7311 29.8891 38.3029L103.214 142.845L70.56 201.135L31.7644 117.408ZM318.645 375.959C317.857 376.482 317.219 377.202 316.796 378.047L269.455 471.711H195.988L148.667 378.028C148.239 377.178 147.597 376.454 146.804 375.927L66.732 322.567L135.488 340.921L198.166 394.752L197.606 422.276C197.589 423.137 197.775 423.99 198.149 424.766C198.523 425.542 199.074 426.219 199.758 426.742L229.403 449.4C230.359 450.128 231.527 450.522 232.728 450.522C233.929 450.522 235.097 450.128 236.053 449.4L265.698 426.748C266.382 426.225 266.934 425.548 267.308 424.772C267.681 423.996 267.867 423.143 267.85 422.282L267.29 394.752L329.975 340.921L398.711 322.574L318.645 375.959ZM184.002 306.224L143.466 302.525L130.242 276.399L164.314 278.255L184.646 299.18L184.002 306.224ZM207.311 420.355L207.743 399.488H257.707L258.139 420.355L232.722 439.772L207.311 420.355ZM280.778 299.2L301.11 278.275L335.182 276.419L321.964 302.544L281.422 306.224L280.778 299.2ZM414.687 311.631L327.59 334.889L326.301 335.534L287.222 369.148L282.337 315.852L324.471 311.986C325.613 311.884 326.71 311.493 327.659 310.849C328.607 310.205 329.375 309.33 329.891 308.306L347.368 273.776C347.777 272.969 347.965 272.069 347.916 271.166C347.866 270.263 347.58 269.389 347.086 268.631C346.591 267.874 345.906 267.26 345.1 266.851C344.293 266.442 343.393 266.252 342.49 266.301L299.467 268.66C297.758 268.744 296.146 269.474 294.956 270.702L272.903 293.4C272.22 294.099 271.698 294.939 271.372 295.86C271.046 296.782 270.924 297.763 271.015 298.736L278.2 376.875L263.12 389.821H202.31L187.23 376.875L194.422 298.742C194.513 297.769 194.392 296.787 194.067 295.865C193.742 294.942 193.222 294.101 192.54 293.4L170.488 270.702C169.296 269.476 167.684 268.747 165.976 268.66L122.966 266.32C122.063 266.271 121.163 266.461 120.356 266.87C119.55 267.279 118.865 267.893 118.371 268.651C117.876 269.408 117.59 270.282 117.54 271.185C117.491 272.088 117.679 272.989 118.088 273.796L135.565 308.325C136.081 309.349 136.849 310.224 137.797 310.868C138.746 311.512 139.843 311.903 140.985 312.005L183.119 315.872L178.234 369.167L139.116 335.579L137.827 334.934L50.7498 311.631L73.4729 209.809L73.7307 208.655L109.62 144.591C109.976 143.956 110.146 143.233 110.109 142.506C110.073 141.778 109.832 141.076 109.414 140.48L35.412 34.9389C36.0381 34.4097 36.628 33.8392 37.1778 33.2311L150.916 95.7809L151.676 96.1998L208.491 104.578H256.933L293.667 99.1642C295.467 103.271 298.626 106.634 302.612 108.687C306.599 110.741 311.171 111.36 315.56 110.441C319.949 109.521 323.888 107.12 326.716 103.64C329.544 100.159 331.088 95.8121 331.09 91.3278C331.091 89.8526 330.922 88.3822 330.587 86.9456L432.867 30.6984L367.249 124.426C364.565 123.549 361.722 123.264 358.917 123.591C356.111 123.919 353.41 124.851 351 126.323C348.589 127.795 346.527 129.772 344.955 132.118C343.382 134.465 342.337 137.124 341.892 139.913C341.447 142.702 341.611 145.554 342.375 148.274C343.138 150.993 344.483 153.514 346.315 155.664C348.147 157.813 350.423 159.54 352.987 160.725C355.551 161.909 358.341 162.524 361.166 162.526C362.652 162.528 364.134 162.357 365.58 162.017L383.67 194.31C380.786 196.917 378.747 200.326 377.813 204.1C376.879 207.873 377.093 211.84 378.428 215.491C379.763 219.143 382.157 222.312 385.305 224.594C388.452 226.875 392.21 228.165 396.095 228.298L414.687 311.631ZM396.778 218.651C394.825 218.651 392.916 218.072 391.293 216.987C389.669 215.902 388.404 214.36 387.657 212.556C386.909 210.752 386.714 208.767 387.095 206.852C387.476 204.937 388.416 203.177 389.797 201.797C391.177 200.416 392.937 199.476 394.852 199.095C396.767 198.714 398.752 198.909 400.556 199.656C402.36 200.404 403.902 201.669 404.987 203.293C406.072 204.916 406.651 206.825 406.651 208.778C406.649 211.396 405.608 213.906 403.757 215.757C401.906 217.608 399.396 218.649 396.778 218.651V218.651ZM400.232 189.56C399.093 189.347 397.937 189.242 396.778 189.245C394.136 189.241 391.522 189.778 389.096 190.824L371.554 159.516C374.227 157.839 376.453 155.538 378.041 152.812C379.63 150.086 380.533 147.015 380.675 143.862C380.816 140.71 380.191 137.571 378.852 134.713C377.514 131.856 375.503 129.365 372.991 127.455L438.596 33.7531L441.515 100.44L400.232 189.56Z" fill="#1e1f28"/>
</svg>
